<?xml version="1.0" encoding="UTF-8"?>
<svg id="Capa_2" xmlns="http://www.w3.org/2000/svg" viewBox="0 0 627.17 627.67">
  <defs>
    <style>
      .cls-1 {
        fill: #fff;
      }

      .cls-2 {
        fill: none;
        stroke: blue;
        stroke-miterlimit: 10;
      }
    </style>
  </defs>
  <g id="Capa_1-2" data-name="Capa_1">
    <path class="cls-2" d="M313.33,304.17c5.34,0,9.67,4.33,9.67,9.67s-4.33,9.67-9.67,9.67"/>
    <path class="cls-2" d="M313.33,301.16c7,0,12.67,5.67,12.67,12.67s-5.67,12.67-12.67,12.67"/>
    <path class="cls-2" d="M313.33,298.15c8.66,0,15.68,7.02,15.68,15.68s-7.02,15.68-15.68,15.68"/>
    <path class="cls-2" d="M313.33,295.15c10.32,0,18.69,8.37,18.69,18.69s-8.37,18.69-18.69,18.69"/>
    <path class="cls-2" d="M313.33,292.14c11.98,0,21.7,9.71,21.7,21.7s-9.71,21.7-21.7,21.7"/>
    <path class="cls-2" d="M313.33,289.13c13.64,0,24.7,11.06,24.7,24.7s-11.06,24.7-24.7,24.7"/>
    <path class="cls-2" d="M313.33,286.12c15.3,0,27.71,12.41,27.71,27.71s-12.41,27.71-27.71,27.71"/>
    <path class="cls-2" d="M313.33,283.12c16.96,0,30.72,13.75,30.72,30.72s-13.75,30.72-30.72,30.72"/>
    <path class="cls-2" d="M313.33,280.11c18.63,0,33.72,15.1,33.72,33.72s-15.1,33.72-33.72,33.72"/>
    <path class="cls-2" d="M313.33,277.1c20.29,0,36.73,16.45,36.73,36.73s-16.45,36.73-36.73,36.73"/>
    <path class="cls-2" d="M313.33,274.09c21.95,0,39.74,17.79,39.74,39.74s-17.79,39.74-39.74,39.74"/>
    <path class="cls-2" d="M313.33,271.09c23.61,0,42.75,19.14,42.75,42.75s-19.14,42.75-42.75,42.75"/>
    <path class="cls-2" d="M313.33,268.08c25.27,0,45.75,20.48,45.75,45.75s-20.48,45.75-45.75,45.75"/>
    <path class="cls-2" d="M313.33,265.07c26.93,0,48.76,21.83,48.76,48.76s-21.83,48.76-48.76,48.76"/>
    <path class="cls-2" d="M313.33,262.07c28.59,0,51.77,23.18,51.77,51.77s-23.18,51.77-51.77,51.77"/>
    <path class="cls-2" d="M313.33,259.06c30.25,0,54.78,24.52,54.78,54.78s-24.52,54.78-54.78,54.78"/>
    <path class="cls-2" d="M313.33,256.05c31.91,0,57.78,25.87,57.78,57.78s-25.87,57.78-57.78,57.78"/>
    <path class="cls-2" d="M313.33,253.04c33.57,0,60.79,27.22,60.79,60.79s-27.22,60.79-60.79,60.79"/>
    <path class="cls-2" d="M313.33,250.04c35.23,0,63.8,28.56,63.8,63.8s-28.56,63.8-63.8,63.8"/>
    <path class="cls-2" d="M313.33,247.03c36.9,0,66.81,29.91,66.81,66.81s-29.91,66.81-66.81,66.81"/>
    <path class="cls-2" d="M313.33,244.02c38.56,0,69.81,31.26,69.81,69.81s-31.26,69.81-69.81,69.81"/>
    <path class="cls-2" d="M313.33,241.01c40.22,0,72.82,32.6,72.82,72.82s-32.6,72.82-72.82,72.82"/>
    <path class="cls-2" d="M313.33,238.01c41.88,0,75.83,33.95,75.83,75.83s-33.95,75.83-75.83,75.83"/>
    <path class="cls-2" d="M313.33,235c43.54,0,78.83,35.3,78.83,78.83s-35.3,78.83-78.83,78.83"/>
    <path class="cls-2" d="M313.33,231.99c45.2,0,81.84,36.64,81.84,81.84s-36.64,81.84-81.84,81.84"/>
    <path class="cls-2" d="M313.33,228.98c46.86,0,84.85,37.99,84.85,84.85s-37.99,84.85-84.85,84.85"/>
    <path class="cls-2" d="M313.33,225.98c48.52,0,87.86,39.33,87.86,87.86s-39.33,87.86-87.86,87.86"/>
    <path class="cls-2" d="M313.33,222.97c50.18,0,90.86,40.68,90.86,90.86s-40.68,90.86-90.86,90.86"/>
    <path class="cls-2" d="M313.33,219.96c51.84,0,93.87,42.03,93.87,93.87s-42.03,93.87-93.87,93.87"/>
    <path class="cls-2" d="M313.33,216.96c53.5,0,96.88,43.37,96.88,96.88s-43.37,96.88-96.88,96.88"/>
    <path class="cls-2" d="M313.33,213.95c55.17,0,99.89,44.72,99.89,99.89s-44.72,99.89-99.89,99.89"/>
    <path class="cls-2" d="M313.33,210.94c56.83,0,102.89,46.07,102.89,102.89s-46.07,102.89-102.89,102.89"/>
    <path class="cls-2" d="M313.33,207.93c58.49,0,105.9,47.41,105.9,105.9s-47.41,105.9-105.9,105.9"/>
    <path class="cls-2" d="M313.33,204.93c60.15,0,108.91,48.76,108.91,108.91s-48.76,108.91-108.91,108.91"/>
    <path class="cls-2" d="M313.33,201.92c61.81,0,111.92,50.11,111.92,111.92s-50.11,111.92-111.92,111.92"/>
    <path class="cls-2" d="M313.33,198.91c63.47,0,114.92,51.45,114.92,114.92s-51.45,114.92-114.92,114.92"/>
    <path class="cls-2" d="M313.33,195.9c65.13,0,117.93,52.8,117.93,117.93s-52.8,117.93-117.93,117.93"/>
    <path class="cls-2" d="M313.33,192.9c66.79,0,120.94,54.15,120.94,120.94s-54.15,120.94-120.94,120.94"/>
    <path class="cls-2" d="M313.33,189.89c68.45,0,123.94,55.49,123.94,123.94s-55.49,123.94-123.94,123.94"/>
    <path class="cls-2" d="M313.33,186.88c70.11,0,126.95,56.84,126.95,126.95s-56.84,126.95-126.95,126.95"/>
    <path class="cls-2" d="M313.33,183.87c71.77,0,129.96,58.18,129.96,129.96s-58.18,129.96-129.96,129.96"/>
    <path class="cls-2" d="M313.33,180.87c73.44,0,132.97,59.53,132.97,132.97s-59.53,132.97-132.97,132.97"/>
    <path class="cls-2" d="M313.33,177.86c75.1,0,135.97,60.88,135.97,135.97s-60.88,135.97-135.97,135.97"/>
    <path class="cls-2" d="M313.33,174.85c76.76,0,138.98,62.22,138.98,138.98s-62.22,138.98-138.98,138.98"/>
    <path class="cls-2" d="M313.33,171.84c78.42,0,141.99,63.57,141.99,141.99s-63.57,141.99-141.99,141.99"/>
    <path class="cls-2" d="M313.33,168.84c80.08,0,145,64.92,145,145s-64.92,145-145,145"/>
    <path class="cls-2" d="M313.33,165.83c81.74,0,148,66.26,148,148s-66.26,148-148,148"/>
    <path class="cls-2" d="M313.33,162.82c83.4,0,151.01,67.61,151.01,151.01s-67.61,151.01-151.01,151.01"/>
    <path class="cls-2" d="M313.33,159.82c85.06,0,154.02,68.96,154.02,154.02s-68.96,154.02-154.02,154.02"/>
    <path class="cls-2" d="M313.33,156.81c86.72,0,157.03,70.3,157.03,157.03s-70.3,157.03-157.03,157.03"/>
    <path class="cls-2" d="M313.33,153.8c88.38,0,160.03,71.65,160.03,160.03s-71.65,160.03-160.03,160.03"/>
    <path class="cls-2" d="M313.33,150.79c90.04,0,163.04,73,163.04,163.04s-73,163.04-163.04,163.04"/>
    <path class="cls-2" d="M313.33,147.79c91.71,0,166.05,74.34,166.05,166.05s-74.34,166.05-166.05,166.05"/>
    <path class="cls-2" d="M313.33,144.78c93.37,0,169.05,75.69,169.05,169.05s-75.69,169.05-169.05,169.05"/>
    <path class="cls-2" d="M313.33,141.77c95.03,0,172.06,77.03,172.06,172.06s-77.03,172.06-172.06,172.06"/>
    <path class="cls-2" d="M313.33,138.76c96.69,0,175.07,78.38,175.07,175.07s-78.38,175.07-175.07,175.07"/>
    <path class="cls-2" d="M313.33,135.76c98.35,0,178.08,79.73,178.08,178.08s-79.73,178.08-178.08,178.08"/>
    <path class="cls-2" d="M313.33,132.75c100.01,0,181.08,81.07,181.08,181.08s-81.07,181.08-181.08,181.08"/>
    <path class="cls-2" d="M313.33,129.74c101.67,0,184.09,82.42,184.09,184.09s-82.42,184.09-184.09,184.09"/>
    <path class="cls-2" d="M313.33,126.73c103.33,0,187.1,83.77,187.1,187.1s-83.77,187.1-187.1,187.1"/>
    <path class="cls-2" d="M313.33,123.73c104.99,0,190.11,85.11,190.11,190.11s-85.11,190.11-190.11,190.11"/>
    <path class="cls-2" d="M313.33,120.72c106.65,0,193.11,86.46,193.11,193.11s-86.46,193.11-193.11,193.11"/>
    <path class="cls-2" d="M313.33,117.71c108.31,0,196.12,87.81,196.12,196.12s-87.81,196.12-196.12,196.12"/>
    <path class="cls-2" d="M313.33,114.71c109.98,0,199.13,89.15,199.13,199.13s-89.15,199.13-199.13,199.13"/>
    <path class="cls-2" d="M313.33,111.7c111.64,0,202.14,90.5,202.14,202.14s-90.5,202.14-202.14,202.14"/>
    <path class="cls-2" d="M313.33,108.69c113.3,0,205.14,91.85,205.14,205.14s-91.85,205.14-205.14,205.14"/>
    <path class="cls-2" d="M313.33,105.68c114.96,0,208.15,93.19,208.15,208.15s-93.19,208.15-208.15,208.15"/>
    <path class="cls-2" d="M313.33,102.68c116.62,0,211.16,94.54,211.16,211.16s-94.54,211.16-211.16,211.16"/>
    <path class="cls-2" d="M313.33,99.67c118.28,0,214.16,95.88,214.16,214.16s-95.88,214.16-214.16,214.16"/>
    <path class="cls-2" d="M313.33,96.66c119.94,0,217.17,97.23,217.17,217.17s-97.23,217.17-217.17,217.17"/>
    <path class="cls-2" d="M313.33,93.65c121.6,0,220.18,98.58,220.18,220.18s-98.58,220.18-220.18,220.18"/>
    <path class="cls-2" d="M313.33,90.65c123.26,0,223.19,99.92,223.19,223.19s-99.92,223.19-223.19,223.19"/>
    <path class="cls-2" d="M313.33,87.64c124.92,0,226.19,101.27,226.19,226.19s-101.27,226.19-226.19,226.19"/>
    <path class="cls-2" d="M313.33,84.63c126.58,0,229.2,102.62,229.2,229.2s-102.62,229.2-229.2,229.2"/>
    <path class="cls-2" d="M313.33,81.62c128.25,0,232.21,103.96,232.21,232.21s-103.96,232.21-232.21,232.21"/>
    <path class="cls-2" d="M313.33,78.62c129.91,0,235.22,105.31,235.22,235.22s-105.31,235.22-235.22,235.22"/>
    <path class="cls-2" d="M313.33,75.61c131.57,0,238.22,106.66,238.22,238.22s-106.66,238.22-238.22,238.22"/>
    <path class="cls-2" d="M313.33,72.6c133.23,0,241.23,108,241.23,241.23s-108,241.23-241.23,241.23"/>
    <path class="cls-2" d="M313.33,69.6c134.89,0,244.24,109.35,244.24,244.24s-109.35,244.24-244.24,244.24"/>
    <path class="cls-2" d="M313.33,66.59c136.55,0,247.25,110.7,247.25,247.25s-110.7,247.25-247.25,247.25"/>
    <path class="cls-2" d="M313.33,63.58c138.21,0,250.25,112.04,250.25,250.25s-112.04,250.25-250.25,250.25"/>
    <path class="cls-2" d="M313.33,60.57c139.87,0,253.26,113.39,253.26,253.26s-113.39,253.26-253.26,253.26"/>
    <path class="cls-2" d="M313.33,57.57c141.53,0,256.27,114.73,256.27,256.27s-114.73,256.27-256.27,256.27"/>
    <path class="cls-2" d="M313.33,54.56c143.19,0,259.27,116.08,259.27,259.27s-116.08,259.27-259.27,259.27"/>
    <path class="cls-2" d="M313.33,51.55c144.85,0,262.28,117.43,262.28,262.28s-117.43,262.28-262.28,262.28"/>
    <path class="cls-2" d="M313.33,48.54c146.52,0,265.29,118.77,265.29,265.29s-118.77,265.29-265.29,265.29"/>
    <path class="cls-2" d="M313.33,45.54c148.18,0,268.3,120.12,268.3,268.3s-120.12,268.3-268.3,268.3"/>
    <path class="cls-2" d="M313.33,42.53c149.84,0,271.3,121.47,271.3,271.3s-121.47,271.3-271.3,271.3"/>
    <path class="cls-2" d="M313.33,39.52c151.5,0,274.31,122.81,274.31,274.31s-122.81,274.31-274.31,274.31"/>
    <path class="cls-2" d="M313.33,36.49c153.17,0,277.34,124.17,277.34,277.34s-124.17,277.34-277.34,277.34"/>
    <path class="cls-2" d="M313.33,33.54c154.8,0,280.3,125.49,280.3,280.3s-125.49,280.3-280.3,280.3"/>
    <path class="cls-2" d="M313.33,30.55c156.45,0,283.28,126.83,283.28,283.28s-126.83,283.28-283.28,283.28"/>
    <path class="cls-2" d="M313.33,27.54c158.11,0,286.29,128.18,286.29,286.29s-128.18,286.29-286.29,286.29"/>
    <path class="cls-2" d="M313.33,24.53c159.78,0,289.3,129.52,289.3,289.3s-129.52,289.3-289.3,289.3"/>
    <path class="cls-2" d="M313.33,21.49c161.46,0,292.35,130.89,292.35,292.35s-130.89,292.35-292.35,292.35"/>
    <path class="cls-2" d="M313.33,18.48c163.12,0,295.36,132.24,295.36,295.36s-132.24,295.36-295.36,295.36"/>
    <path class="cls-2" d="M313.33,15.47c164.78,0,298.36,133.58,298.36,298.36s-133.58,298.36-298.36,298.36"/>
    <path class="cls-2" d="M313.33,12.52c166.41,0,301.32,134.9,301.32,301.32s-134.9,301.32-301.32,301.32"/>
    <path class="cls-2" d="M313.33,9.52c168.07,0,304.31,136.25,304.31,304.31s-136.25,304.31-304.31,304.31"/>
    <path class="cls-2" d="M313.33,6.52c169.72,0,307.31,137.59,307.31,307.31s-137.59,307.31-307.31,307.31"/>
    <path class="cls-2" d="M313.33,3.51c171.39,0,310.32,138.94,310.32,310.32s-138.94,310.32-310.32,310.32"/>
    <path class="cls-2" d="M313.33.5c173.05,0,313.33,140.28,313.33,313.33s-140.28,313.33-313.33,313.33"/>
    <rect class="cls-1" y=".5" width="313.33" height="626.67" transform="translate(313.33 627.67) rotate(180)"/>
  </g>
</svg>