<?xml version="1.0" encoding="UTF-8"?>
<svg id="Capa_2" xmlns="http://www.w3.org/2000/svg" viewBox="0 0 627.17 627.67">
  <defs>
    <style>
      .cls-1 {
        fill: #fff;
      }

      .cls-2 {
        fill: none;
        stroke: green;
        stroke-miterlimit: 10;
      }
    </style>
  </defs>
  <g id="Capa_1-2" data-name="Capa_1" >
    <path class="cls-2" d="M313.83,323.5c-5.34,0-9.67-4.33-9.67-9.67s4.33-9.67,9.67-9.67" />
    <path class="cls-2" d="M313.83,326.51c-7,0-12.67-5.67-12.67-12.67s5.67-12.67,12.67-12.67"/>
    <path class="cls-2" d="M313.83,329.51c-8.66,0-15.68-7.02-15.68-15.68s7.02-15.68,15.68-15.68"/>
    <path class="cls-2" d="M313.83,332.52c-10.32,0-18.69-8.37-18.69-18.69s8.37-18.69,18.69-18.69"/>
    <path class="cls-2" d="M313.83,335.53c-11.98,0-21.7-9.71-21.7-21.7s9.71-21.7,21.7-21.7"/>
    <path class="cls-2" d="M313.83,338.54c-13.64,0-24.7-11.06-24.7-24.7s11.06-24.7,24.7-24.7"/>
    <path class="cls-2" d="M313.83,341.54c-15.3,0-27.71-12.41-27.71-27.71s12.41-27.71,27.71-27.71"/>
    <path class="cls-2" d="M313.83,344.55c-16.96,0-30.72-13.75-30.72-30.72s13.75-30.72,30.72-30.72"/>
    <path class="cls-2" d="M313.83,347.56c-18.63,0-33.72-15.1-33.72-33.72s15.1-33.72,33.72-33.72"/>
    <path class="cls-2" d="M313.83,350.57c-20.29,0-36.73-16.45-36.73-36.73s16.45-36.73,36.73-36.73"/>
    <path class="cls-2" d="M313.83,353.57c-21.95,0-39.74-17.79-39.74-39.74s17.79-39.74,39.74-39.74"/>
    <path class="cls-2" d="M313.83,356.58c-23.61,0-42.75-19.14-42.75-42.75s19.14-42.75,42.75-42.75"/>
    <path class="cls-2" d="M313.83,359.59c-25.27,0-45.75-20.48-45.75-45.75s20.48-45.75,45.75-45.75"/>
    <path class="cls-2" d="M313.83,362.59c-26.93,0-48.76-21.83-48.76-48.76s21.83-48.76,48.76-48.76"/>
    <path class="cls-2" d="M313.83,365.6c-28.59,0-51.77-23.18-51.77-51.77s23.18-51.77,51.77-51.77"/>
    <path class="cls-2" d="M313.83,368.61c-30.25,0-54.78-24.52-54.78-54.78s24.52-54.78,54.78-54.78"/>
    <path class="cls-2" d="M313.83,371.62c-31.91,0-57.78-25.87-57.78-57.78s25.87-57.78,57.78-57.78"/>
    <path class="cls-2" d="M313.83,374.62c-33.57,0-60.79-27.22-60.79-60.79s27.22-60.79,60.79-60.79"/>
    <path class="cls-2" d="M313.83,377.63c-35.23,0-63.8-28.56-63.8-63.8s28.56-63.8,63.8-63.8"/>
    <path class="cls-2" d="M313.83,380.64c-36.9,0-66.81-29.91-66.81-66.81s29.91-66.81,66.81-66.81" />
    <path class="cls-2" d="M313.83,383.65c-38.56,0-69.81-31.26-69.81-69.81s31.26-69.81,69.81-69.81"/>
    <path class="cls-2" d="M313.83,386.65c-40.22,0-72.82-32.6-72.82-72.82s32.6-72.82,72.82-72.82"/>
    <path class="cls-2" d="M313.83,389.66c-41.88,0-75.83-33.95-75.83-75.83s33.95-75.83,75.83-75.83"/>
    <path class="cls-2" d="M313.83,392.67c-43.54,0-78.83-35.3-78.83-78.83s35.3-78.83,78.83-78.83"/>
    <path class="cls-2" d="M313.83,395.68c-45.2,0-81.84-36.64-81.84-81.84s36.64-81.84,81.84-81.84"/>
    <path class="cls-2" d="M313.83,398.68c-46.86,0-84.85-37.99-84.85-84.85s37.99-84.85,84.85-84.85"/>
    <path class="cls-2" d="M313.83,401.69c-48.52,0-87.86-39.33-87.86-87.86s39.33-87.86,87.86-87.86"/>
    <path class="cls-2" d="M313.83,404.7c-50.18,0-90.86-40.68-90.86-90.86s40.68-90.86,90.86-90.86"/>
    <path class="cls-2" d="M313.83,407.7c-51.84,0-93.87-42.03-93.87-93.87s42.03-93.87,93.87-93.87"/>
    <path class="cls-2" d="M313.83,410.71c-53.5,0-96.88-43.37-96.88-96.88s43.37-96.88,96.88-96.88"/>
    <path class="cls-2" d="M313.83,413.72c-55.17,0-99.89-44.72-99.89-99.89s44.72-99.89,99.89-99.89"/>
    <path class="cls-2" d="M313.83,416.73c-56.83,0-102.89-46.07-102.89-102.89s46.07-102.89,102.89-102.89"/>
    <path class="cls-2" d="M313.83,419.73c-58.49,0-105.9-47.41-105.9-105.9s47.41-105.9,105.9-105.9"/>
    <path class="cls-2" d="M313.83,422.74c-60.15,0-108.91-48.76-108.91-108.91s48.76-108.91,108.91-108.91"/>
    <path class="cls-2" d="M313.83,425.75c-61.81,0-111.92-50.11-111.92-111.92s50.11-111.92,111.92-111.92"/>
    <path class="cls-2" d="M313.83,428.76c-63.47,0-114.92-51.45-114.92-114.92s51.45-114.92,114.92-114.92"/>
    <path class="cls-2" d="M313.83,431.76c-65.13,0-117.93-52.8-117.93-117.93s52.8-117.93,117.93-117.93"/>
    <path class="cls-2" d="M313.83,434.77c-66.79,0-120.94-54.15-120.94-120.94s54.15-120.94,120.94-120.94"/>
    <path class="cls-2" d="M313.83,437.78c-68.45,0-123.94-55.49-123.94-123.94s55.49-123.94,123.94-123.94"/>
    <path class="cls-2" d="M313.83,440.79c-70.11,0-126.95-56.84-126.95-126.95s56.84-126.95,126.95-126.95"/>
    <path class="cls-2" d="M313.83,443.79c-71.77,0-129.96-58.18-129.96-129.96s58.18-129.96,129.96-129.96"/>
    <path class="cls-2" d="M313.83,446.8c-73.44,0-132.97-59.53-132.97-132.97s59.53-132.97,132.97-132.97"/>
    <path class="cls-2" d="M313.83,449.81c-75.1,0-135.97-60.88-135.97-135.97s60.88-135.97,135.97-135.97"/>
    <path class="cls-2" d="M313.83,452.81c-76.76,0-138.98-62.22-138.98-138.98s62.22-138.98,138.98-138.98"/>
    <path class="cls-2" d="M313.83,455.82c-78.42,0-141.99-63.57-141.99-141.99s63.57-141.99,141.99-141.99"/>
    <path class="cls-2" d="M313.83,458.83c-80.08,0-145-64.92-145-145s64.92-145,145-145"/>
    <path class="cls-2" d="M313.83,461.84c-81.74,0-148-66.26-148-148s66.26-148,148-148"/>
    <path class="cls-2" d="M313.83,464.84c-83.4,0-151.01-67.61-151.01-151.01s67.61-151.01,151.01-151.01"/>
    <path class="cls-2" d="M313.83,467.85c-85.06,0-154.02-68.96-154.02-154.02s68.96-154.02,154.02-154.02"/>
    <path class="cls-2" d="M313.83,470.86c-86.72,0-157.03-70.3-157.03-157.03s70.3-157.03,157.03-157.03"/>
    <path class="cls-2" d="M313.83,473.87c-88.38,0-160.03-71.65-160.03-160.03s71.65-160.03,160.03-160.03"/>
    <path class="cls-2" d="M313.83,476.87c-90.04,0-163.04-73-163.04-163.04s73-163.04,163.04-163.04"/>
    <path class="cls-2" d="M313.83,479.88c-91.71,0-166.05-74.34-166.05-166.05s74.34-166.05,166.05-166.05"/>
    <path class="cls-2" d="M313.83,482.89c-93.37,0-169.05-75.69-169.05-169.05s75.69-169.05,169.05-169.05"/>
    <path class="cls-2" d="M313.83,485.9c-95.03,0-172.06-77.03-172.06-172.06s77.03-172.06,172.06-172.06"/>
    <path class="cls-2" d="M313.83,488.9c-96.69,0-175.07-78.38-175.07-175.07s78.38-175.07,175.07-175.07"/>
    <path class="cls-2" d="M313.83,491.91c-98.35,0-178.08-79.73-178.08-178.08s79.73-178.08,178.08-178.08"/>
    <path class="cls-2" d="M313.83,494.92c-100.01,0-181.08-81.07-181.08-181.08s81.07-181.08,181.08-181.08"/>
    <path class="cls-2" d="M313.83,497.92c-101.67,0-184.09-82.42-184.09-184.09s82.42-184.09,184.09-184.09"/>
    <path class="cls-2" d="M313.83,500.93c-103.33,0-187.1-83.77-187.1-187.1s83.77-187.1,187.1-187.1"/>
    <path class="cls-2" d="M313.83,503.94c-104.99,0-190.11-85.11-190.11-190.11s85.11-190.11,190.11-190.11"/>
    <path class="cls-2" d="M313.83,506.95c-106.65,0-193.11-86.46-193.11-193.11s86.46-193.11,193.11-193.11"/>
    <path class="cls-2" d="M313.83,509.95c-108.31,0-196.12-87.81-196.12-196.12s87.81-196.12,196.12-196.12"/>
    <path class="cls-2" d="M313.83,512.96c-109.98,0-199.13-89.15-199.13-199.13s89.15-199.13,199.13-199.13"/>
    <path class="cls-2" d="M313.83,515.97c-111.64,0-202.14-90.5-202.14-202.14s90.5-202.14,202.14-202.14"/>
    <path class="cls-2" d="M313.83,518.98c-113.3,0-205.14-91.85-205.14-205.14s91.85-205.14,205.14-205.14"/>
    <path class="cls-2" d="M313.83,521.98c-114.96,0-208.15-93.19-208.15-208.15s93.19-208.15,208.15-208.15"/>
    <path class="cls-2" d="M313.83,524.99c-116.62,0-211.16-94.54-211.16-211.16s94.54-211.16,211.16-211.16"/>
    <path class="cls-2" d="M313.83,528c-118.28,0-214.16-95.88-214.16-214.16s95.88-214.16,214.16-214.16"/>
    <path class="cls-2" d="M313.83,531.01c-119.94,0-217.17-97.23-217.17-217.17s97.23-217.17,217.17-217.17"/>
    <path class="cls-2" d="M313.83,534.01c-121.6,0-220.18-98.58-220.18-220.18s98.58-220.18,220.18-220.18"/>
    <path class="cls-2" d="M313.83,537.02c-123.26,0-223.19-99.92-223.19-223.19s99.92-223.19,223.19-223.19"/>
    <path class="cls-2" d="M313.83,540.03c-124.92,0-226.19-101.27-226.19-226.19s101.27-226.19,226.19-226.19"/>
    <path class="cls-2" d="M313.83,543.04c-126.58,0-229.2-102.62-229.2-229.2s102.62-229.2,229.2-229.2"/>
    <path class="cls-2" d="M313.83,546.04c-128.25,0-232.21-103.96-232.21-232.21s103.96-232.21,232.21-232.21"/>
    <path class="cls-2" d="M313.83,549.05c-129.91,0-235.22-105.31-235.22-235.22s105.31-235.22,235.22-235.22"/>
    <path class="cls-2" d="M313.83,552.06c-131.57,0-238.22-106.66-238.22-238.22s106.66-238.22,238.22-238.22"/>
    <path class="cls-2" d="M313.83,555.06c-133.23,0-241.23-108-241.23-241.23s108-241.23,241.23-241.23"/>
    <path class="cls-2" d="M313.83,558.07c-134.89,0-244.24-109.35-244.24-244.24s109.35-244.24,244.24-244.24"/>
    <path class="cls-2" d="M313.83,561.08c-136.55,0-247.25-110.7-247.25-247.25s110.7-247.25,247.25-247.25"/>
    <path class="cls-2" d="M313.83,564.09c-138.21,0-250.25-112.04-250.25-250.25S175.62,63.58,313.83,63.58"/>
    <path class="cls-2" d="M313.83,567.09c-139.87,0-253.26-113.39-253.26-253.26S173.96,60.57,313.83,60.57"/>
    <path class="cls-2" d="M313.83,570.1c-141.53,0-256.27-114.73-256.27-256.27S172.3,57.57,313.83,57.57"/>
    <path class="cls-2" d="M313.83,573.11c-143.19,0-259.27-116.08-259.27-259.27S170.64,54.56,313.83,54.56"/>
    <path class="cls-2" d="M313.83,576.12c-144.85,0-262.28-117.43-262.28-262.28S168.98,51.55,313.83,51.55"/>
    <path class="cls-2" d="M313.83,579.12c-146.52,0-265.29-118.77-265.29-265.29S167.32,48.54,313.83,48.54"/>
    <path class="cls-2" d="M313.83,582.13c-148.18,0-268.3-120.12-268.3-268.3S165.66,45.54,313.83,45.54"/>
    <path class="cls-2" d="M313.83,585.14c-149.84,0-271.3-121.47-271.3-271.3S164,42.53,313.83,42.53"/>
    <path class="cls-2" d="M313.83,588.15c-151.5,0-274.31-122.81-274.31-274.31S162.34,39.52,313.83,39.52"/>
    <path class="cls-2" d="M313.83,591.17c-153.17,0-277.34-124.17-277.34-277.34S160.66,36.49,313.83,36.49"/>
    <path class="cls-2" d="M313.83,594.13c-154.8,0-280.3-125.49-280.3-280.3S159.03,33.54,313.83,33.54"/>
    <path class="cls-2" d="M313.83,597.12c-156.45,0-283.28-126.83-283.28-283.28S157.38,30.55,313.83,30.55"/>
    <path class="cls-2" d="M313.83,600.13c-158.11,0-286.29-128.18-286.29-286.29S155.72,27.54,313.83,27.54"/>
    <path class="cls-2" d="M313.83,603.13c-159.78,0-289.3-129.52-289.3-289.3S154.06,24.53,313.83,24.53"/>
    <path class="cls-2" d="M313.83,606.18c-161.46,0-292.35-130.89-292.35-292.35S152.37,21.49,313.83,21.49"/>
    <path class="cls-2" d="M313.83,609.19c-163.12,0-295.36-132.24-295.36-295.36S150.71,18.48,313.83,18.48"/>
    <path class="cls-2" d="M313.83,612.2c-164.78,0-298.36-133.58-298.36-298.36S149.05,15.47,313.83,15.47"/>
    <path class="cls-2" d="M313.83,615.15c-166.41,0-301.32-134.9-301.32-301.32S147.42,12.52,313.83,12.52"/>
    <path class="cls-2" d="M313.83,618.15c-168.07,0-304.31-136.25-304.31-304.31S145.77,9.52,313.83,9.52"/>
    <path class="cls-2" d="M313.83,621.15C144.11,621.15,6.52,483.56,6.52,313.83S144.11,6.52,313.83,6.52"/>
    <path class="cls-2" d="M313.83,624.16C142.45,624.16,3.51,485.22,3.51,313.83S142.45,3.51,313.83,3.51"/>
    <path class="cls-2" d="M313.83,627.17C140.78,627.17.5,486.88.5,313.83S140.78.5,313.83.5"/>
    <rect class="cls-1" x="313.83" y=".5" width="313.33" height="626.67"/>
  </g>
</svg>