<?xml version="1.0" encoding="UTF-8"?>
<svg id="Capa_1" xmlns="http://www.w3.org/2000/svg" viewBox="0 0 621.61 621.61">
  <defs>
    <style>
      .cls-1 {
        fill: none;
        stroke: #70150e;
        stroke-miterlimit: 10;
        stroke-width: 3px;
      }
    </style>
  </defs>
  <path class="cls-1" d="M311.32,320.47c-5.34,0-9.67-4.33-9.67-9.67,0-5.34,4.33-9.67,9.67-9.67"/>
  <path class="cls-1" d="M311.32,332.5c-11.98,0-21.7-9.71-21.7-21.7s9.71-21.7,21.7-21.7"/>
  <path class="cls-1" d="M311.32,344.53c-18.63,0-33.72-15.1-33.72-33.72s15.1-33.72,33.72-33.72"/>
  <path class="cls-1" d="M311.32,356.56c-25.27,0-45.75-20.48-45.75-45.75s20.48-45.75,45.75-45.75"/>
  <path class="cls-1" d="M311.32,368.59c-31.91,0-57.78-25.87-57.78-57.78,0-31.91,25.87-57.78,57.78-57.78"/>
  <path class="cls-1" d="M311.32,380.62c-38.56,0-69.81-31.26-69.81-69.81,0-38.56,31.26-69.81,69.81-69.81"/>
  <path class="cls-1" d="M311.32,392.65c-45.2,0-81.84-36.64-81.84-81.84s36.64-81.84,81.84-81.84"/>
  <path class="cls-1" d="M311.32,404.68c-51.84,0-93.87-42.03-93.87-93.87s42.03-93.87,93.87-93.87"/>
  <path class="cls-1" d="M311.32,416.71c-58.49,0-105.9-47.41-105.9-105.9s47.41-105.9,105.9-105.9"/>
  <path class="cls-1" d="M311.32,428.74c-65.13,0-117.93-52.8-117.93-117.93,0-65.13,52.8-117.93,117.93-117.93"/>
  <path class="cls-1" d="M311.32,440.76c-71.77,0-129.96-58.18-129.96-129.96,0-71.77,58.18-129.96,129.96-129.96"/>
  <path class="cls-1" d="M311.32,452.79c-78.42,0-141.99-63.57-141.99-141.99,0-78.42,63.57-141.99,141.99-141.99"/>
  <path class="cls-1" d="M311.32,464.82c-85.06,0-154.02-68.96-154.02-154.02s68.96-154.02,154.02-154.02"/>
  <path class="cls-1" d="M311.32,476.85c-91.71,0-166.05-74.34-166.05-166.05s74.34-166.05,166.05-166.05"/>
  <path class="cls-1" d="M311.32,488.88c-98.35,0-178.08-79.73-178.08-178.08,0-98.35,79.73-178.08,178.08-178.08"/>
  <path class="cls-1" d="M311.32,500.91c-104.99,0-190.11-85.11-190.11-190.11s85.11-190.11,190.11-190.11"/>
  <path class="cls-1" d="M311.32,512.94c-111.64,0-202.14-90.5-202.14-202.14,0-111.64,90.5-202.14,202.14-202.14"/>
  <path class="cls-1" d="M311.32,524.97c-118.28,0-214.16-95.88-214.16-214.16s95.88-214.16,214.16-214.16"/>
  <path class="cls-1" d="M311.32,537c-124.92,0-226.19-101.27-226.19-226.19s101.27-226.19,226.19-226.19"/>
  <path class="cls-1" d="M311.32,549.03c-131.57,0-238.22-106.66-238.22-238.22,0-131.57,106.66-238.22,238.22-238.22"/>
  <path class="cls-1" d="M311.32,561.06c-138.21,0-250.25-112.04-250.25-250.25,0-138.21,112.04-250.25,250.25-250.25"/>
  <path class="cls-1" d="M311.32,573.09c-144.85,0-262.28-117.43-262.28-262.28,0-144.85,117.43-262.28,262.28-262.28"/>
  <path class="cls-1" d="M311.32,585.12c-151.5,0-274.31-122.81-274.31-274.31S159.82,36.49,311.32,36.49"/>
  <path class="cls-1" d="M311.32,597.1c-158.11,0-286.29-128.18-286.29-286.29,0-158.11,128.18-286.29,286.29-286.29"/>
  <path class="cls-1" d="M311.32,609.17c-164.78,0-298.36-133.58-298.36-298.36S146.54,12.44,311.32,12.44"/>
  <path class="cls-1" d="M311.32,621.13c-171.39,0-310.32-138.94-310.32-310.32C1,139.42,139.93.48,311.32.48"/>
</svg>