<?xml version="1.0" encoding="UTF-8"?>
<svg id="Capa_1" xmlns="http://www.w3.org/2000/svg" viewBox="0 0 621.61 621.61">
  <defs>
    <style>
      .cls-1 {
        fill: none;
        stroke: #e7770f;
        stroke-miterlimit: 10;
        stroke-width: 3px;
      }
    </style>
  </defs>
  <path class="cls-1" d="M310.29,301.14c5.34,0,9.67,4.33,9.67,9.67s-4.33,9.67-9.67,9.67"/>
  <path class="cls-1" d="M310.29,289.11c11.98,0,21.7,9.71,21.7,21.7s-9.71,21.7-21.7,21.7"/>
  <path class="cls-1" d="M310.29,277.08c18.63,0,33.72,15.1,33.72,33.72s-15.1,33.72-33.72,33.72"/>
  <path class="cls-1" d="M310.29,265.05c25.27,0,45.75,20.48,45.75,45.75s-20.48,45.75-45.75,45.75"/>
  <path class="cls-1" d="M310.29,253.02c31.91,0,57.78,25.87,57.78,57.78s-25.87,57.78-57.78,57.78"/>
  <path class="cls-1" d="M310.29,240.99c38.56,0,69.81,31.26,69.81,69.81s-31.26,69.81-69.81,69.81"/>
  <path class="cls-1" d="M310.29,228.96c45.2,0,81.84,36.64,81.84,81.84s-36.64,81.84-81.84,81.84"/>
  <path class="cls-1" d="M310.29,216.93c51.84,0,93.87,42.03,93.87,93.87s-42.03,93.87-93.87,93.87"/>
  <path class="cls-1" d="M310.29,204.9c58.49,0,105.9,47.41,105.9,105.9s-47.41,105.9-105.9,105.9"/>
  <path class="cls-1" d="M310.29,192.88c65.13,0,117.93,52.8,117.93,117.93s-52.8,117.93-117.93,117.93"/>
  <path class="cls-1" d="M310.29,180.85c71.77,0,129.96,58.18,129.96,129.96s-58.18,129.96-129.96,129.96"/>
  <path class="cls-1" d="M310.29,168.82c78.42,0,141.99,63.57,141.99,141.99s-63.57,141.99-141.99,141.99"/>
  <path class="cls-1" d="M310.29,156.79c85.06,0,154.02,68.96,154.02,154.02s-68.96,154.02-154.02,154.02"/>
  <path class="cls-1" d="M310.29,144.76c91.71,0,166.05,74.34,166.05,166.05s-74.34,166.05-166.05,166.05"/>
  <path class="cls-1" d="M310.29,132.73c98.35,0,178.08,79.73,178.08,178.08s-79.73,178.08-178.08,178.08"/>
  <path class="cls-1" d="M310.29,120.7c104.99,0,190.11,85.11,190.11,190.11s-85.11,190.11-190.11,190.11"/>
  <path class="cls-1" d="M310.29,108.67c111.64,0,202.14,90.5,202.14,202.14s-90.5,202.14-202.14,202.14"/>
  <path class="cls-1" d="M310.29,96.64c118.28,0,214.16,95.88,214.16,214.16s-95.88,214.16-214.16,214.16"/>
  <path class="cls-1" d="M310.29,84.61c124.92,0,226.19,101.27,226.19,226.19s-101.27,226.19-226.19,226.19"/>
  <path class="cls-1" d="M310.29,72.58c131.57,0,238.22,106.66,238.22,238.22s-106.66,238.22-238.22,238.22"/>
  <path class="cls-1" d="M310.29,60.55c138.21,0,250.25,112.04,250.25,250.25s-112.04,250.25-250.25,250.25"/>
  <path class="cls-1" d="M310.29,48.52c144.85,0,262.28,117.43,262.28,262.28s-117.43,262.28-262.28,262.28"/>
  <path class="cls-1" d="M310.29,36.49c151.5,0,274.31,122.81,274.31,274.31s-122.81,274.31-274.31,274.31"/>
  <path class="cls-1" d="M310.29,24.51c158.11,0,286.29,128.18,286.29,286.29s-128.18,286.29-286.29,286.29"/>
  <path class="cls-1" d="M310.29,12.44c164.78,0,298.36,133.58,298.36,298.36s-133.58,298.36-298.36,298.36"/>
  <path class="cls-1" d="M310.29.48c171.39,0,310.32,138.94,310.32,310.32s-138.94,310.32-310.32,310.32"/>
</svg>